<?xml version="1.0" encoding="utf-8"?>
<!-- Generator: Adobe Illustrator 24.3.0, SVG Export Plug-In . SVG Version: 6.00 Build 0)  -->
<svg version="1.0" id="katman_1" xmlns="http://www.w3.org/2000/svg" xmlns:xlink="http://www.w3.org/1999/xlink" x="0px" y="0px"
	 viewBox="0 0 54.95 38.77" style="enable-background:new 0 0 54.95 38.77;" xml:space="preserve">
<g id="Aleksa">
	<path d="M21.93,2.08c2.54,0,5.08-0.06,7.62-0.03c0.88,0.05,1.72,0.58,2.14,1.36c4.66,11.09,9.47,22.12,14.08,33.24
		c-2.41,0.03-4.82-0.03-7.22,0.04c-1.22,0.12-2.5-0.63-2.84-1.85c-1.6-3.86-3.17-7.74-4.76-11.6c-2.38-0.01-4.76,0.01-7.15,0
		c-1.63,3.94-3.21,7.9-4.85,11.83c-0.36,1.02-1.45,1.75-2.54,1.64c-2.41-0.03-4.83,0.05-7.23,0c1.86-4.69,3.84-9.34,5.75-14.01
		c0.35-0.75,1.1-1.3,1.92-1.44c4.41-0.08,8.81-0.03,13.22-0.06C27.32,14.85,24.47,8.53,21.93,2.08z"/>
</g>
<g id="Layer_1">
</g>
</svg>
